<svg id="yt-white" xmlns="http://www.w3.org/2000/svg" width="48" height="48" viewBox="0 0 48 48">
  <path id="Path_34151" data-name="Path 34151" d="M24,0A24,24,0,1,1,0,24,24,24,0,0,1,24,0Z" fill="none"/>
  <path id="Path_34150" data-name="Path 34150" d="M41.165,17.238a4.12,4.12,0,0,0-2.88-2.9c-2.536-.676-12.7-.676-12.7-.676s-10.168,0-12.7.676a4.12,4.12,0,0,0-2.88,2.9,43.054,43.054,0,0,0-.676,7.875A43.054,43.054,0,0,0,10,32.988a4.12,4.12,0,0,0,2.88,2.9c2.536.676,12.7.676,12.7.676s10.168,0,12.7-.676a4.12,4.12,0,0,0,2.88-2.9,43.053,43.053,0,0,0,.676-7.875A43.054,43.054,0,0,0,41.165,17.238ZM22.257,29.953V20.273l8.5,4.84Z" transform="translate(-1.319 -0.66)" />
</svg>
